<svg width="13" height="20" viewBox="0 0 13 20" fill="none" xmlns="http://www.w3.org/2000/svg">
<path d="M11.7959 19.5608C12.0771 19.2795 12.235 18.8981 12.235 18.5003C12.235 18.1026 12.0771 17.7211 11.7959 17.4398L4.37086 10.0148L11.7959 2.58982C12.0691 2.30692 12.2203 1.92802 12.2169 1.53472C12.2135 1.14143 12.0557 0.765207 11.7776 0.487095C11.4995 0.208983 11.1233 0.0512315 10.73 0.0478135C10.3367 0.0443956 9.95777 0.195587 9.67486 0.468824L1.18936 8.95432C0.908156 9.23562 0.750183 9.61708 0.750183 10.0148C0.750183 10.4126 0.908156 10.794 1.18936 11.0753L9.67486 19.5608C9.95615 19.842 10.3376 20 10.7354 20C11.1331 20 11.5146 19.842 11.7959 19.5608Z" fill="white"/>
</svg>
