<svg width="15" height="16" viewBox="0 0 15 16" fill="none" xmlns="http://www.w3.org/2000/svg">
<g clip-path="url(#clip0_17_136)">
<path d="M11.8361 1.46885H11.2131V0.845901C11.2131 0.680684 11.1475 0.522234 11.0307 0.405408C10.9138 0.288582 10.7554 0.22295 10.5902 0.22295C10.4249 0.22295 10.2665 0.288582 10.1497 0.405408C10.0328 0.522234 9.96721 0.680684 9.96721 0.845901V1.46885H4.98361V0.845901C4.98361 0.680684 4.91797 0.522234 4.80115 0.405408C4.68432 0.288582 4.52587 0.22295 4.36066 0.22295C4.19544 0.22295 4.03699 0.288582 3.92016 0.405408C3.80334 0.522234 3.73771 0.680684 3.73771 0.845901V1.46885H3.11475C2.28897 1.46984 1.4973 1.79832 0.913383 2.38223C0.329467 2.96615 0.000989157 3.75783 0 4.58361L0 12.059C0.000989157 12.8848 0.329467 13.6765 0.913383 14.2604C1.4973 14.8443 2.28897 15.1728 3.11475 15.1738H11.8361C12.6618 15.1728 13.4535 14.8443 14.0374 14.2604C14.6214 13.6765 14.9498 12.8848 14.9508 12.059V4.58361C14.9498 3.75783 14.6214 2.96615 14.0374 2.38223C13.4535 1.79832 12.6618 1.46984 11.8361 1.46885ZM1.2459 4.58361C1.2459 4.08796 1.4428 3.61261 1.79328 3.26213C2.14375 2.91165 2.6191 2.71475 3.11475 2.71475H11.8361C12.3317 2.71475 12.8071 2.91165 13.1575 3.26213C13.508 3.61261 13.7049 4.08796 13.7049 4.58361V5.20656H1.2459V4.58361ZM11.8361 13.9279H3.11475C2.6191 13.9279 2.14375 13.731 1.79328 13.3805C1.4428 13.03 1.2459 12.5547 1.2459 12.059V6.45246H13.7049V12.059C13.7049 12.5547 13.508 13.03 13.1575 13.3805C12.8071 13.731 12.3317 13.9279 11.8361 13.9279Z" fill="#F7B103"/>
<path d="M7.4755 10.5016C7.99157 10.5016 8.40993 10.0833 8.40993 9.56719C8.40993 9.05112 7.99157 8.63277 7.4755 8.63277C6.95943 8.63277 6.54108 9.05112 6.54108 9.56719C6.54108 10.0833 6.95943 10.5016 7.4755 10.5016Z" fill="#F7B103"/>
<path d="M4.36063 10.5016C4.8767 10.5016 5.29506 10.0833 5.29506 9.56719C5.29506 9.05112 4.8767 8.63277 4.36063 8.63277C3.84457 8.63277 3.42621 9.05112 3.42621 9.56719C3.42621 10.0833 3.84457 10.5016 4.36063 10.5016Z" fill="#F7B103"/>
<path d="M10.5901 10.5016C11.1062 10.5016 11.5246 10.0833 11.5246 9.56719C11.5246 9.05112 11.1062 8.63277 10.5901 8.63277C10.0741 8.63277 9.6557 9.05112 9.6557 9.56719C9.6557 10.0833 10.0741 10.5016 10.5901 10.5016Z" fill="#F7B103"/>
</g>
<defs>
<clipPath id="clip0_17_136">
<rect width="14.9508" height="14.9508" fill="white" transform="translate(0 0.22295)"/>
</clipPath>
</defs>
</svg>
