<svg width="30" height="30" viewBox="0 0 30 30" fill="none" xmlns="http://www.w3.org/2000/svg">
<g clip-path="url(#clip0_2001_121)">
<path d="M2.24414 0.667988C1.63477 0.861347 1.10156 1.3301 0.802734 1.93361L0.615234 2.31447V12.1875V22.0606L0.767578 22.3887C1.03125 22.9453 1.54688 23.4258 2.12109 23.6602C2.34961 23.7539 2.91797 23.7598 8.8125 23.7891L15.2461 23.8184L15.3926 24.3164C15.9727 26.3496 17.6016 28.1367 19.5938 28.916C20.5781 29.3028 21.0527 29.3848 22.2949 29.3789C23.3027 29.3789 23.4609 29.3613 23.9707 29.2266C25.9629 28.6875 27.4805 27.5508 28.4824 25.834C29.373 24.3047 29.6543 22.2246 29.2031 20.4668C28.6934 18.4571 27.1523 16.5938 25.3418 15.7852L24.9609 15.6153L24.9902 10.9278C25.0078 8.34963 25.0313 5.55471 25.0488 4.71682C25.0898 2.97658 25.0371 2.37893 24.8145 1.90432C24.5977 1.45314 24.1699 1.03127 23.6895 0.802753L23.291 0.615253L12.8906 0.603535C4.40625 0.597675 2.44336 0.609394 2.24414 0.667988ZM23.209 2.0215C23.3438 2.11525 23.5195 2.31447 23.5957 2.4551C23.7246 2.70705 23.7305 2.75978 23.7305 4.1133V5.50783H12.7734H1.81641V4.18361C1.81641 3.30471 1.83984 2.7715 1.88672 2.6133C1.97461 2.32619 2.30273 1.98049 2.57813 1.8926C2.72461 1.84572 5.63672 1.82814 12.873 1.834L22.957 1.84572L23.209 2.0215ZM23.7305 10.9922V15.2461L23.6016 15.2051C23.332 15.1231 21.6973 15.0996 21.2109 15.1699C19.3652 15.4395 17.6543 16.4531 16.5527 17.9238C15.6387 19.1309 15.1172 20.6367 15.1172 22.043V22.5586L8.89453 22.5469C3.16406 22.5293 2.6543 22.5235 2.48438 22.4297C2.22656 22.2891 1.95117 21.9551 1.88086 21.6973C1.83984 21.5449 1.81641 19.0664 1.81641 14.1035V6.7383H12.7734H23.7305V10.9922ZM21.6211 19.4063V22.4004L22.9395 25.0957C23.918 27.0996 24.2402 27.8086 24.1875 27.8379C24.1465 27.8672 23.877 27.9434 23.584 28.0137C22.7988 28.2071 21.6328 28.1953 20.8418 27.9903C17.1797 27.0235 15.3105 23.0332 16.957 19.6875C17.7363 18.0996 19.1543 16.9512 20.8594 16.5235C21.0996 16.4649 21.3691 16.4121 21.4629 16.4121L21.6211 16.4063V19.4063ZM23.9824 16.6231C25.582 17.127 26.8711 18.2403 27.5801 19.7285C27.8145 20.2207 28.125 21.2403 28.125 21.5098C28.125 21.6153 28.0254 21.6211 25.5176 21.6211H22.9102V19.0078V16.3887L23.209 16.4297C23.373 16.4531 23.7246 16.541 23.9824 16.6231ZM28.125 23.0215C28.125 23.0801 28.0605 23.3906 27.9785 23.7071C27.6738 24.9024 26.9297 26.0625 25.957 26.8477C25.6875 27.0645 25.4531 27.2461 25.4355 27.2461C25.4063 27.2403 23.3906 23.1446 23.332 22.9688C23.3145 22.9278 24.0762 22.9102 25.7168 22.9102C28.0313 22.9102 28.125 22.916 28.125 23.0215Z" fill="#F7B103"/>
<path d="M3.2168 3.2168C3.07617 3.35742 3.04688 3.43945 3.04688 3.66211C3.04688 3.88477 3.07617 3.9668 3.2168 4.10742C3.38672 4.27734 3.39844 4.27734 4.06055 4.27734C4.64648 4.27734 4.75195 4.25977 4.88672 4.1543C5.17969 3.91992 5.18555 3.43359 4.89258 3.17578C4.75195 3.05859 4.68164 3.04688 4.06641 3.04688C3.39844 3.04688 3.38672 3.04688 3.2168 3.2168Z" fill="#F7B103"/>
<path d="M6.29296 3.15234C6.03515 3.35742 5.96484 3.67969 6.11718 3.97852C6.24609 4.21875 6.43945 4.27734 7.11913 4.27734C7.71679 4.27734 7.74023 4.27148 7.92187 4.10742C8.08593 3.96094 8.11523 3.89648 8.11523 3.66211C8.11523 3.42773 8.08593 3.36328 7.92187 3.2168C7.73437 3.05273 7.71679 3.04688 7.07226 3.04688C6.53906 3.04688 6.39257 3.07031 6.29296 3.15234Z" fill="#F7B103"/>
<path d="M9.26367 3.12896C8.86523 3.35161 8.88281 4.02544 9.29883 4.21294C9.48633 4.30083 10.6172 4.29497 10.8105 4.20708C10.9922 4.12505 11.1328 3.88481 11.1328 3.66216C11.1328 3.4395 10.9922 3.19927 10.8105 3.11724C10.5996 3.01763 9.44531 3.02935 9.26367 3.12896Z" fill="#F7B103"/>
<path d="M11.4258 10.5996C10.8809 10.7695 10.3887 11.2324 10.2246 11.7246C10.1309 12.0059 10.125 12.7148 10.2129 13.0371C10.2598 13.207 8.0918 15.2695 7.89258 15.2461C7.30664 15.1641 6.84375 15.1699 6.56836 15.2637C6.15234 15.3984 5.74219 15.791 5.53711 16.2363C5.39648 16.5586 5.3789 16.6465 5.40234 17.0801C5.42578 17.4785 5.45508 17.6133 5.60742 17.877C6.3164 19.1426 8.21484 19.084 8.85351 17.7773C9.01172 17.4434 9.06445 16.8516 8.96484 16.4883L8.88867 16.2129L10.0254 15.1172C11.0801 14.0977 11.1738 14.0215 11.3086 14.0742C11.3906 14.1094 11.5723 14.1504 11.7129 14.168L11.9648 14.209L12.2168 14.8828L12.4629 15.5566L12.293 15.7734C11.9941 16.1602 11.8711 16.5059 11.8711 16.9922C11.8711 17.7246 12.2285 18.293 12.8789 18.6152C13.1602 18.7559 13.2891 18.7793 13.6816 18.7793C14.0742 18.7793 14.2031 18.7559 14.4844 18.6152C15.2695 18.2285 15.6738 17.3555 15.4453 16.5234L15.3574 16.2012L16.4473 15.1113L17.5312 14.0215L17.8066 14.1035C17.9766 14.1563 18.2285 14.1797 18.4922 14.1621C19.7051 14.0918 20.4668 12.9141 20.0625 11.707C19.916 11.2617 19.4238 10.7813 18.9668 10.6406C18.5215 10.5 17.9414 10.5293 17.5723 10.7109C16.8047 11.0859 16.3887 11.959 16.582 12.7734L16.6582 13.0781L15.5508 14.1914C14.6602 15.082 14.4199 15.293 14.3262 15.2637C14.2617 15.2402 14.0859 15.2109 13.9336 15.1934L13.6641 15.1641L13.4062 14.4551L13.1484 13.752L13.3125 13.5703C13.623 13.2305 13.7344 12.9082 13.7402 12.3633C13.7402 11.9531 13.7168 11.8125 13.5937 11.5723C13.2832 10.9277 12.6504 10.541 11.9355 10.5527C11.7363 10.5527 11.5078 10.5762 11.4258 10.5996ZM12.1875 11.8652C12.2812 11.9121 12.3867 12.0059 12.4219 12.0645C12.5684 12.3457 12.4219 12.832 12.1934 12.832C12.1406 12.832 12.0645 12.8613 12.0293 12.8965C11.8594 13.0664 11.3672 12.6797 11.3672 12.3691C11.3672 12.0996 11.666 11.7949 11.9414 11.7832C11.9824 11.7773 12.0937 11.8184 12.1875 11.8652ZM18.7676 12.0117C18.9785 12.2461 18.9727 12.4805 18.7559 12.7266C18.5273 12.9844 18.252 12.9844 17.9941 12.7324C17.7129 12.4453 17.7539 12.0527 18.0937 11.8652C18.3105 11.7422 18.5684 11.8008 18.7676 12.0117ZM7.49414 16.5C7.57031 16.5527 7.66406 16.6875 7.71094 16.793C7.89844 17.2383 7.45312 17.6836 7.00781 17.4961C6.79687 17.4082 6.62109 17.1504 6.62109 16.9277C6.62109 16.8633 6.70898 16.7168 6.82031 16.6055C7.04297 16.3828 7.27148 16.3477 7.49414 16.5ZM13.9043 16.4707C14.2676 16.6699 14.3437 17.0508 14.0742 17.3496C13.8457 17.6074 13.5176 17.6074 13.2891 17.3496C13.0137 17.0449 13.084 16.6523 13.4355 16.5C13.6758 16.3945 13.7461 16.3887 13.9043 16.4707Z" fill="#F7B103"/>
</g>
<defs>
<clipPath id="clip0_2001_121">
<rect width="30" height="30" fill="white"/>
</clipPath>
</defs>
</svg>
