<svg width="30" height="30" viewBox="0 0 30 30" fill="none" xmlns="http://www.w3.org/2000/svg">
<path d="M13.5762 0.0878906C8.73632 0.873047 5.12695 4.69336 4.63476 9.54492C4.5996 9.87891 4.5703 10.6465 4.5703 11.2559V12.3633L4.20702 12.3691C2.80077 12.3809 1.61132 13.3887 1.31249 14.8359C1.24218 15.1816 1.2246 15.7383 1.24218 18.0703C1.25976 20.8828 1.25976 20.8887 1.40038 21.2402C1.58788 21.7148 1.88671 22.1543 2.21484 22.4473C2.54882 22.7402 3.19335 23.0625 3.62695 23.1445C3.79687 23.1738 4.64062 23.2031 5.50195 23.2031C6.96093 23.2031 7.07226 23.1973 7.2539 23.0859C7.6289 22.8574 7.61718 23.0391 7.61718 17.8652C7.61718 14.4434 7.5996 13.1074 7.54687 12.9375C7.51171 12.8145 7.38866 12.6328 7.2832 12.5391C7.0957 12.375 7.05468 12.3633 6.59179 12.3633H6.09374V11.5254C6.0996 9.87891 6.22851 8.84766 6.57421 7.79297C7.05468 6.31641 7.8164 5.12109 8.9707 4.01367C10.1894 2.84766 11.6953 2.0625 13.418 1.69336C13.9453 1.57617 14.1973 1.55859 15.2051 1.55859C16.4941 1.56445 17.0039 1.64062 18.0644 1.99219C20.5664 2.83008 22.6055 4.75781 23.5898 7.21289C24.0879 8.46094 24.1992 9.10547 24.2402 10.9043L24.2754 12.3516L23.7422 12.3691C23.3144 12.3867 23.1914 12.416 23.0859 12.5098C22.7871 12.7734 22.793 12.6621 22.793 17.8418C22.793 23.0801 22.7812 22.9219 23.1035 23.0977C23.1738 23.1387 23.4668 23.1855 23.7598 23.2031L24.2871 23.2324L23.7598 23.7656C23.4668 24.0586 23.0684 24.4102 22.8633 24.5449C22.0137 25.1191 20.8828 25.5117 19.9922 25.5586L19.5703 25.5762L19.4062 25.1016C19.3125 24.8438 19.1426 24.4805 19.0195 24.2988C18.5508 23.5898 17.6719 22.9746 16.8457 22.7637C16.4414 22.6582 15.5508 22.6465 15.1055 22.7402C14.6719 22.8281 13.916 23.2031 13.5586 23.5078C12.9609 24.0176 12.5215 24.709 12.334 25.459C12.2226 25.9102 12.2226 26.7539 12.3398 27.2109C12.668 28.5059 13.7461 29.5898 15.0293 29.9121C15.4805 30.0234 16.4004 30.0234 16.8457 29.9121C18.1992 29.5605 19.1836 28.6055 19.5117 27.3164L19.5762 27.0703H19.9453C21.0996 27.0703 22.5762 26.5781 23.748 25.7988C24.3516 25.3945 25.2715 24.457 25.7519 23.7422C26.0039 23.373 26.2031 23.1328 26.2793 23.1211C26.8769 23.0039 27.1172 22.9395 27.4219 22.7812C28.1074 22.4414 28.5762 21.8203 28.7109 21.0762C28.7519 20.8594 28.7695 19.7578 28.7578 17.9707L28.7402 15.2051L28.582 14.7363C28.1426 13.4414 27.1758 12.5156 26.1387 12.3926L25.7812 12.3516V11.0801C25.7812 9.30469 25.6699 8.51367 25.248 7.23633C24.6738 5.51953 23.8301 4.18359 22.4883 2.90039C21.6855 2.12695 20.9531 1.61133 19.9512 1.11328C19.043 0.662109 18.3398 0.410156 17.373 0.193359C16.8223 0.0703125 16.541 0.046875 15.4101 0.0292969C14.4492 0.0117188 13.9512 0.0292969 13.5762 0.0878906ZM6.03515 17.7891V21.6914L4.96874 21.668C3.74413 21.6445 3.5332 21.5859 3.1582 21.1699C2.7832 20.7539 2.7832 20.7598 2.7832 17.8125V15.1465L2.9414 14.8242C3.1289 14.4434 3.18163 14.373 3.46288 14.1621C3.74999 13.9453 4.02538 13.8984 5.11523 13.8926L6.03515 13.8867V17.7891ZM26.2266 14.0156C26.4844 14.1562 26.8301 14.5547 26.9883 14.9062C27.2285 15.4336 27.2519 15.8145 27.2344 18.3984C27.2168 21.0762 27.2226 21.0234 26.8359 21.3457C26.5605 21.5801 26.3027 21.6328 25.2715 21.6621L24.3164 21.6914V17.7832V13.875L25.1836 13.8984C25.834 13.916 26.0859 13.9453 26.2266 14.0156ZM16.8574 24.4102C17.5195 24.7266 17.918 25.2539 18.0527 25.9863C18.2285 26.9414 17.7539 27.8262 16.8223 28.2832C16.5351 28.4238 16.4238 28.4473 15.9668 28.4473C15.5215 28.4473 15.3867 28.4238 15.1113 28.2949C14.2676 27.8965 13.7051 26.9824 13.7871 26.127C13.8691 25.2188 14.6191 24.3867 15.5273 24.2051C15.9551 24.1172 16.3945 24.1816 16.8574 24.4102Z" fill="#F7B103"/>
</svg>
