<svg width="30" height="30" viewBox="0 0 30 30" fill="none" xmlns="http://www.w3.org/2000/svg">
<path d="M5.79494 1.64062C5.46681 1.81641 5.17384 2.19141 5.09767 2.54297C5.0508 2.75391 5.03908 5.2207 5.0508 10.9863L5.06837 19.1309L5.19728 19.3652C5.26173 19.4941 5.3965 19.6699 5.49025 19.7578C5.85353 20.1094 5.73634 20.0977 9.90236 20.0977H13.711V20.7773V21.457L13.4824 21.252C13.1309 20.9355 12.9082 20.8418 12.5098 20.8359C11.7656 20.8242 11.25 21.3105 11.2031 22.0664C11.168 22.5879 11.2793 22.7812 12.1875 23.7891C13.1836 24.8906 13.5996 25.5059 13.7695 26.1504C13.8399 26.4141 13.9688 26.7598 14.0449 26.9238C14.2559 27.3281 14.8242 27.9023 15.2461 28.125C15.8496 28.4473 16.043 28.4766 17.7598 28.4766C19.5469 28.4766 19.7988 28.4297 20.4375 28.0078C21.0176 27.6211 21.3692 27.1582 21.6328 26.4492C21.75 26.127 21.7617 25.9805 21.7852 24.0762C21.8086 21.9434 21.791 21.7441 21.5449 21.3809C21.3223 21.0527 21.0235 20.918 20.4903 20.918C20.2383 20.918 19.9805 20.9414 19.9219 20.9766C19.834 21.0234 19.8047 21.0117 19.7754 20.9238C19.7227 20.7422 19.3067 20.4023 19.0606 20.3379C18.7852 20.2617 18.4512 20.2559 18.2637 20.3262C18.1348 20.3789 18.1172 20.3672 18.0879 20.2383L18.0645 20.0977H20.9883C24.1758 20.0977 24.1524 20.0977 24.5098 19.7578C24.6035 19.6699 24.7383 19.4941 24.8028 19.3652L24.9317 19.1309L24.9492 10.9863C24.961 5.2207 24.9492 2.75391 24.9024 2.54297C24.8262 2.18555 24.5332 1.81055 24.1934 1.64062C23.9766 1.52344 23.8067 1.52344 14.9883 1.52344C6.23439 1.5293 6.00002 1.5293 5.79494 1.64062ZM23.8945 2.34375C24.1465 2.51367 24.1992 2.73633 24.1992 3.68555V4.57031H15H5.8008V3.68555C5.8008 2.57812 5.85939 2.41992 6.32814 2.26172C6.37502 2.25 10.3184 2.23828 15.0879 2.24414C22.6641 2.25586 23.7774 2.26758 23.8945 2.34375ZM24.1875 12.1641L24.1699 18.9961L23.9766 19.166L23.7832 19.3418L20.3438 19.3125C18.4512 19.3008 16.8281 19.2832 16.7285 19.2773C16.6348 19.2773 16.4942 19.2891 16.4238 19.3066L16.2891 19.3359V18.1699C16.2891 17.5254 16.2656 16.9336 16.2305 16.8516L16.1719 16.6992H17.0039C17.7246 16.6992 17.8653 16.6816 18.0879 16.5762C19.043 16.1133 19.043 14.7363 18.0879 14.2207C17.8418 14.0918 17.8242 14.0918 15 14.0918C12.1875 14.0918 12.1582 14.0918 11.918 14.2207C10.9512 14.7363 10.9512 16.1133 11.9121 16.5762C12.1348 16.6816 12.2754 16.6992 12.9961 16.6992H13.8281L13.7695 16.8516C13.7344 16.9336 13.711 17.5254 13.711 18.1699V19.3359H9.96095H6.21095L6.02345 19.166L5.83009 18.9961L5.81252 12.1641L5.8008 5.33203H15H24.1992L24.1875 12.1641ZM17.877 15.0469C18.1055 15.2988 18.1055 15.5391 17.877 15.7676L17.707 15.9375H15H12.293L12.1231 15.7676C12.0117 15.6504 11.9531 15.5332 11.9531 15.4219C11.9531 15.2109 12.1934 14.9004 12.3809 14.8652C12.4512 14.8477 13.6758 14.8418 15.1055 14.8477L17.707 14.8535L17.877 15.0469ZM15.2051 16.7695C15.5274 16.916 15.5274 16.9102 15.5274 20.1152C15.5274 22.8516 15.5332 23.0742 15.6328 23.1621C15.7969 23.3086 16.0547 23.3145 16.1953 23.168C16.2774 23.0918 16.2891 22.875 16.2891 21.7324V20.3906L16.4531 20.2207C16.6817 19.9688 16.9746 19.957 17.1973 20.1855L17.3438 20.3262V21.668C17.3438 22.8867 17.3555 23.0273 17.4492 23.1445C17.584 23.3086 17.918 23.3203 18.0293 23.168C18.082 23.0977 18.1055 22.8281 18.1055 22.2891C18.1055 21.4336 18.1524 21.252 18.4043 21.1172C18.6387 21 18.7735 21.0176 18.9785 21.1875L19.1602 21.3398V22.1191C19.1602 22.5527 19.1836 22.9688 19.2188 23.0566C19.2949 23.2559 19.5293 23.3438 19.7344 23.25C19.8867 23.1738 19.8926 23.1504 19.9219 22.5879C19.9395 22.2656 19.9863 21.9434 20.0274 21.8789C20.1738 21.6152 20.6836 21.5742 20.9004 21.8086C20.9942 21.9141 21.0059 22.0898 21.0235 23.6953C21.0352 24.8145 21.0176 25.5996 20.9766 25.8398C20.8008 26.8418 20.0449 27.5684 19.0254 27.7207C18.5332 27.791 16.875 27.7852 16.4063 27.7148C15.4336 27.5566 14.7656 26.9238 14.502 25.8984C14.3086 25.1426 13.8457 24.4512 12.7266 23.2207C12.3692 22.8281 12.0527 22.4531 12.0176 22.3887C11.9356 22.2422 11.9356 21.9961 12.0117 21.8496C12.0996 21.6855 12.4102 21.5449 12.586 21.5918C12.668 21.6094 13.002 21.8906 13.336 22.2129C13.9746 22.834 14.127 22.9043 14.3555 22.6758C14.4668 22.5645 14.4727 22.4766 14.4727 19.8457C14.4785 16.9512 14.4785 16.9453 14.7715 16.7812C14.9473 16.6816 15.0176 16.6816 15.2051 16.7695Z" fill="#F7B103"/>
<path d="M7.08987 2.53708C6.60354 2.78903 6.42776 3.41599 6.69729 3.8906C6.89065 4.2363 7.08987 4.35349 7.51761 4.38278C7.82815 4.40036 7.91018 4.38278 8.08597 4.2656C8.19729 4.18943 8.34964 4.03708 8.42581 3.92575C8.543 3.75583 8.56058 3.66208 8.543 3.36911C8.5137 2.93552 8.34964 2.67185 8.00393 2.51364C7.68167 2.36716 7.39456 2.37302 7.08987 2.53708ZM7.7344 3.25193C7.88675 3.43943 7.65823 3.72653 7.45901 3.59763C7.31839 3.50974 7.30081 3.37497 7.41214 3.25778C7.52933 3.1406 7.64065 3.1406 7.7344 3.25193Z" fill="#F7B103"/>
<path d="M9.60941 2.53711C9.08207 2.8125 8.92386 3.53906 9.28129 4.00781C9.49222 4.28906 9.71488 4.39453 10.0957 4.39453C10.4649 4.39453 10.7227 4.24805 10.9453 3.92578C11.0625 3.75586 11.0801 3.66211 11.0625 3.36914C11.0332 2.93555 10.8692 2.67188 10.5235 2.51367C10.2012 2.36719 9.9141 2.37305 9.60941 2.53711ZM10.2539 3.25195C10.4063 3.43945 10.1778 3.72656 9.97855 3.59766C9.83793 3.50977 9.82035 3.375 9.93168 3.25781C10.0489 3.14062 10.1602 3.14062 10.2539 3.25195Z" fill="#F7B103"/>
<path d="M12.1289 2.53711C11.6016 2.8125 11.4434 3.53906 11.8008 4.00781C12.0118 4.28906 12.2344 4.39453 12.6153 4.39453C12.9844 4.39453 13.2422 4.24805 13.4649 3.92578C13.5821 3.75586 13.5996 3.66211 13.5821 3.36914C13.5528 2.93555 13.3887 2.67188 13.043 2.51367C12.7207 2.36719 12.4336 2.37305 12.1289 2.53711ZM12.7969 3.29297C12.9258 3.49805 12.6387 3.72656 12.4512 3.57422C12.334 3.47461 12.3399 3.29883 12.4688 3.22852C12.6036 3.14648 12.7149 3.16992 12.7969 3.29297Z" fill="#F7B103"/>
<path d="M13.9688 5.80078C11.4844 6.45118 10.2539 9.19336 11.3965 11.5137C12 12.7324 13.125 13.5293 14.4903 13.7109C16.9922 14.0449 19.1836 11.9941 19.0254 9.46289C18.92 7.6875 17.7188 6.23438 16.0078 5.79493C15.4278 5.64844 14.543 5.64844 13.9688 5.80078ZM16.1367 6.64453C17.666 7.23047 18.5567 8.86524 18.1934 10.4121C17.8418 11.9063 16.5117 12.9727 15 12.9727C13.4883 12.9727 12.1582 11.9063 11.8067 10.4121C11.4082 8.72461 12.4571 7.02539 14.209 6.52735C14.6836 6.39258 15.6387 6.45118 16.1367 6.64453Z" fill="#F7B103"/>
<path d="M14.7187 6.86721C14.6777 6.90823 14.6484 7.07229 14.6484 7.24221C14.6484 7.5176 14.6367 7.5469 14.5019 7.58205C14.4258 7.59963 14.2617 7.7051 14.1445 7.81057C13.5937 8.29104 13.5527 9.22854 14.0625 9.68557C14.2617 9.86721 14.918 10.1367 15.1582 10.1367C15.1934 10.1367 15.2871 10.1895 15.375 10.2598C15.7148 10.5235 15.4512 11.1328 15 11.1328C14.8242 11.1328 14.7422 11.0977 14.625 10.9512C14.543 10.8516 14.4727 10.7168 14.4727 10.6406C14.4727 10.4239 14.3086 10.2539 14.0977 10.2539C13.8516 10.2539 13.7109 10.4063 13.7109 10.6875C13.7109 11.1211 13.998 11.5606 14.4316 11.7832C14.6367 11.8887 14.6484 11.9121 14.6484 12.1875C14.6484 12.4336 14.6719 12.4922 14.8008 12.5742C15.0996 12.7735 15.4102 12.5156 15.4102 12.0645C15.4102 11.8828 15.4394 11.8418 15.5801 11.7832C15.9844 11.6133 16.2891 11.1094 16.2891 10.6055C16.2891 9.89651 15.9375 9.52737 15.0762 9.32229C14.6426 9.21682 14.4727 9.07033 14.4727 8.79494C14.4727 8.43752 14.7891 8.19729 15.1465 8.28518C15.3457 8.33791 15.5273 8.54885 15.5273 8.73049C15.5273 9.09377 15.9609 9.29299 16.1894 9.03518C16.4824 8.71291 16.1016 7.83401 15.5859 7.61721C15.4512 7.55862 15.416 7.50588 15.3867 7.24807C15.3633 7.08401 15.3164 6.91408 15.2812 6.87307C15.2051 6.77932 14.8125 6.77346 14.7187 6.86721Z" fill="#F7B103"/>
</svg>
