<svg width="30" height="30" viewBox="0 0 30 30" fill="none" xmlns="http://www.w3.org/2000/svg">
<g clip-path="url(#clip0_2001_14)">
<path d="M7.75195 6.35742C3.92578 9.85547 0.738275 12.8027 0.679682 12.9082C0.59765 13.0488 0.580072 13.1543 0.609369 13.3125C0.644525 13.5234 1.02538 13.8926 3.05859 15.75C3.55663 16.207 3.81445 16.1836 4.43554 15.6152L4.86328 15.2227V20.3848V25.5469H3.89648H2.92968L2.74218 25.7168L2.54882 25.8867L2.53124 27.6094C2.51953 28.5527 2.53124 29.4141 2.54882 29.5254C2.57226 29.6309 2.64843 29.7832 2.7246 29.8594L2.86523 30H15H27.1348L27.2754 29.8594C27.3516 29.7832 27.4277 29.6309 27.4512 29.5254C27.4687 29.4141 27.4805 28.5527 27.4687 27.6094L27.4512 25.8867L27.2578 25.7168L27.0703 25.5469H26.1035H25.1367V20.3848V15.2227L25.5352 15.5859C26.0332 16.0488 26.2266 16.1367 26.5137 16.0371C26.6484 15.9902 27.1934 15.5273 28.0371 14.748C29.4434 13.4414 29.5195 13.3418 29.3613 12.9609C29.3262 12.873 28.5293 12.1055 27.5977 11.2559L25.8984 9.70898L25.8867 6.26367L25.8691 2.8125L25.7051 2.6543L25.5469 2.49023L23.6016 2.47266C21.6211 2.45508 21.4277 2.47266 21.2578 2.68359C21.2051 2.74805 21.1758 3.13477 21.1523 4.05469L21.123 5.33789L18.2051 2.67188L15.2871 0H15H14.7187L7.75195 6.35742ZM21.416 7.30078C24.9316 10.5117 27.8086 13.1543 27.8203 13.1777C27.8437 13.2422 26.3789 14.6016 26.3144 14.5781C26.2793 14.5723 23.8945 12.3984 21 9.75586C18.1113 7.11328 15.6269 4.85156 15.4863 4.72852C15.2812 4.56445 15.1699 4.51172 15 4.51172C14.8301 4.51172 14.7187 4.56445 14.5137 4.72852C14.373 4.85156 11.8887 7.11328 8.99999 9.75586C6.10546 12.3984 3.7207 14.5723 3.68554 14.5781C3.62109 14.6016 2.15624 13.2422 2.17968 13.1777C2.20312 13.1191 14.959 1.46484 15 1.46484C15.0176 1.46484 17.9062 4.08984 21.416 7.30078ZM24.668 6.13477V8.57812L24.4805 8.40234C24.375 8.30273 23.8594 7.83398 23.3379 7.35352L22.3828 6.48633V5.0918V3.69141H23.5254H24.668V6.13477ZM19.4766 10.0488L23.9004 14.0918L23.9062 19.8164V25.5469H15H6.09374V19.8164L6.0996 14.0918L10.5352 10.0371C12.9727 7.80469 14.9883 5.98828 15.0059 5.99414C15.0293 6 17.0391 7.82227 19.4766 10.0488ZM26.25 27.8027V28.8281H15H3.74999V27.8027V26.7773H15H26.25V27.8027Z" fill="#F7B103"/>
<path d="M10.0723 11.9473L9.90234 12.1172V17.9238V23.7246L10.0371 23.877C10.3125 24.1992 10.4238 24.1758 12.7734 23.2676C13.9453 22.8105 14.9531 22.4414 15 22.4414C15.0469 22.4414 16.0488 22.8105 17.2207 23.2617C18.4629 23.7363 19.4414 24.082 19.5527 24.082C19.6992 24.082 19.8047 24.0352 19.9277 23.9121L20.0977 23.7422V17.9297V12.1172L19.9277 11.9473L19.7578 11.7773H15H10.2422L10.0723 11.9473ZM18.8672 17.7832V22.5527L18.6504 22.4766C18.5273 22.4297 17.7012 22.1133 16.8164 21.7734C15.8965 21.4219 15.1172 21.1523 15.0059 21.1523C14.8535 21.1523 12.6562 21.9551 11.209 22.541C11.1504 22.5645 11.1328 21.5918 11.1328 17.7891V13.0078H15H18.8672V17.7832Z" fill="#F7B103"/>
<path d="M15.9082 15.6973C15.8145 15.7559 15.1582 16.3828 14.4609 17.0918L13.1836 18.375V18.6445C13.1836 19.0547 13.3711 19.248 13.7637 19.248H14.0625L15.4395 17.8711C16.8047 16.5 16.8164 16.4883 16.8164 16.2363C16.8164 15.9258 16.7461 15.7852 16.5234 15.6738C16.2949 15.5566 16.1191 15.5625 15.9082 15.6973Z" fill="#F7B103"/>
<path d="M12.9492 16.2129C12.4746 16.4004 12.4219 17.1328 12.8672 17.3379C13.2949 17.5312 13.6992 17.3144 13.752 16.8691C13.7813 16.6347 13.7637 16.5761 13.6172 16.4121C13.4473 16.2246 13.1426 16.1367 12.9492 16.2129Z" fill="#F7B103"/>
<path d="M16.5293 17.543C16.3535 17.6367 16.2363 17.8477 16.2305 18.0645C16.2246 18.6094 16.8281 18.8848 17.2383 18.5215C17.4023 18.375 17.4316 18.3105 17.4316 18.0762C17.4316 17.8418 17.4023 17.7773 17.2383 17.6309C17.0273 17.4434 16.7695 17.4082 16.5293 17.543Z" fill="#F7B103"/>
</g>
<defs>
<clipPath id="clip0_2001_14">
<rect width="30" height="30" fill="white"/>
</clipPath>
</defs>
</svg>
