<svg width="30" height="30" viewBox="0 0 30 30" fill="none" xmlns="http://www.w3.org/2000/svg">
<path d="M10.1602 2.85352C9.94922 3.07617 8.96484 4.35938 8.86523 4.5293C8.81836 4.61719 8.48438 4.62891 5.64258 4.64063C2.54297 4.65821 2.4668 4.65821 2.30859 4.78125C2.2207 4.84571 2.0918 4.97461 2.02734 5.0625L1.9043 5.22071L1.88672 15.832L1.875 26.4375L1.99805 26.6484C2.0625 26.7715 2.18555 26.918 2.27344 26.9824C2.43164 27.0996 2.52539 27.0996 15 27.0996C27.4746 27.0996 27.5684 27.0996 27.7266 26.9824C27.8145 26.918 27.9375 26.7715 28.002 26.6484L28.125 26.4375L28.1133 15.832L28.0957 5.22071L27.9727 5.0625C27.9082 4.97461 27.7793 4.84571 27.6914 4.78125C27.5332 4.65821 27.5039 4.65821 19.7754 4.64063L12.0234 4.62891L11.6543 4.11914C11.1094 3.36914 10.6113 2.75977 10.4824 2.68946C10.3828 2.63672 10.3301 2.66602 10.1602 2.85352ZM11.1035 5.09766L11.4785 5.6543L10.4473 5.67188C9.87891 5.67774 9.4043 5.67774 9.39258 5.66016C9.35742 5.63086 9.60352 5.24414 10.0371 4.63477L10.3945 4.14258L10.5586 4.3418C10.6523 4.45313 10.8984 4.79297 11.1035 5.09766ZM7.83984 6.31055C7.65234 6.69141 7.38867 7.3125 7.25391 7.6875L7.00195 8.37891H4.93945H2.87109V7.00196V5.625H5.52539H8.18555L7.83984 6.31055ZM27.1289 7.00196V8.37891L20.4727 8.36719L13.8223 8.34961L13.5879 7.73438C13.4648 7.39453 13.2012 6.79688 13.0078 6.39844C12.8145 6 12.6562 5.66602 12.6562 5.64844C12.6562 5.63672 15.9141 5.625 19.8926 5.625H27.1289V7.00196ZM12.293 7.20117C13.3594 9.52149 13.6641 12.0527 13.1777 14.4375C13.043 15.0879 12.7266 16.0781 12.4805 16.6289L12.3105 16.9922L10.4004 16.9805L8.48438 16.9629L8.25586 16.4121C7.59961 14.8418 7.33008 13.1602 7.44727 11.4434C7.54688 9.9961 7.94531 8.44922 8.52539 7.22461L8.7832 6.67969H10.418H12.0527L12.293 7.20117ZM6.71484 9.47461C6.56836 9.98438 6.36914 11.7715 6.39258 12.4219C6.39844 12.6445 6.27539 12.9609 5.56055 14.5313C4.54688 16.7637 4.55859 16.7051 4.92188 17.6953C5.35547 18.8555 5.41992 18.873 6.73242 18.1055L7.62891 17.5781L7.79297 17.7539C7.89844 17.8652 8.03906 17.9414 8.19141 17.9648L8.42578 18L8.31445 18.2637C8.15625 18.6328 8.16797 18.9551 8.34961 19.1309L8.49023 19.2773H10.3887C12.2051 19.2773 12.293 19.2715 12.4395 19.1602C12.6504 18.9902 12.6797 18.7793 12.5391 18.375C12.4746 18.1816 12.4219 18.0234 12.4219 18.0176C12.4219 18.0117 12.5273 17.9883 12.6504 17.9648C12.8086 17.9414 12.9258 17.8711 13.0312 17.7539L13.1777 17.5723L14.0859 18.1055C15.0586 18.668 15.3047 18.7383 15.5156 18.5273C15.5742 18.4688 15.7383 18.1113 15.873 17.7422C16.2598 16.7051 16.2656 16.7344 15.2461 14.4902L14.4141 12.6563V12.1758C14.4141 11.543 14.3086 10.4707 14.1855 9.86133L14.0859 9.375H20.6074H27.1289V17.7539V26.1328H15H2.87109V17.7539V9.375H4.81055C6.62695 9.375 6.74414 9.38086 6.71484 9.47461ZM7.10742 16.2422L7.25391 16.6289L6.58008 17.0215C6.21094 17.2383 5.90039 17.4023 5.89453 17.3906C5.84766 17.332 5.68359 16.8574 5.68359 16.793C5.68359 16.7461 5.90039 16.2363 6.16406 15.6504L6.63867 14.5957L6.80273 15.2227C6.89062 15.5684 7.03125 16.0254 7.10742 16.2422ZM14.6719 15.668C14.918 16.2129 15.1172 16.7168 15.1172 16.7871C15.1172 16.8984 14.9707 17.3262 14.9121 17.3906C14.8945 17.4141 13.7637 16.7637 13.6641 16.6699C13.5938 16.6113 13.6113 16.5234 13.7344 16.1777C13.8164 15.9492 13.9395 15.5449 14.0039 15.2754C14.1445 14.7188 14.1738 14.625 14.2031 14.6543C14.2148 14.666 14.4199 15.123 14.6719 15.668ZM11.373 18.1465L11.4199 18.2813H10.4297C9.86133 18.2813 9.43359 18.2578 9.43359 18.2285C9.43359 17.9941 9.47461 17.9824 10.418 18C11.2969 18.0176 11.3262 18.0234 11.373 18.1465Z" fill="#F7B103"/>
<path d="M21.6738 6.67383C21.5742 6.7793 21.5039 6.9082 21.5039 7.00195C21.5039 7.22461 21.7969 7.5 22.0312 7.5C22.2891 7.5 22.5 7.27148 22.5 7.00195C22.5 6.53906 22.0078 6.3457 21.6738 6.67383Z" fill="#F7B103"/>
<path d="M23.5488 6.67383C23.4492 6.7793 23.3789 6.9082 23.3789 7.00195C23.3789 7.22461 23.6719 7.5 23.9062 7.5C24.1641 7.5 24.375 7.27148 24.375 7.00195C24.375 6.53906 23.8828 6.3457 23.5488 6.67383Z" fill="#F7B103"/>
<path d="M25.5117 6.57422C25.3711 6.63867 25.2539 6.85547 25.2539 7.03711C25.2539 7.22461 25.5645 7.5 25.7812 7.5C26.0391 7.5 26.25 7.27148 26.25 7.00195C26.25 6.61523 25.875 6.39844 25.5117 6.57422Z" fill="#F7B103"/>
<path d="M9.74414 7.66992C9.29297 7.82227 8.94727 8.13867 8.71875 8.60156C8.54883 8.94727 8.52539 9.04687 8.52539 9.46289C8.53125 10.0605 8.68359 10.4355 9.08789 10.8105C9.50977 11.2031 9.83203 11.332 10.4062 11.3379C10.834 11.3379 10.916 11.3203 11.2852 11.1328C11.9473 10.793 12.3047 10.1953 12.3047 9.42773C12.3047 8.12695 10.998 7.23633 9.74414 7.66992ZM10.8398 8.67773C11.4316 9.01172 11.4551 9.79102 10.8926 10.207C10.4941 10.5059 9.86719 10.3242 9.62109 9.84375C9.2168 9.05859 10.0723 8.24414 10.8398 8.67773Z" fill="#F7B103"/>
<path d="M20.2852 11.8946C20.0391 12.1289 20.0684 12.4981 20.3555 12.6856C20.4785 12.7676 20.707 12.7793 22.0898 12.7617L23.6836 12.7442L23.7949 12.6035C23.9531 12.4102 23.9414 12.0996 23.7598 11.9239L23.6191 11.7774H22.0137C20.4844 11.7774 20.4082 11.7832 20.2852 11.8946Z" fill="#F7B103"/>
<path d="M18.4395 14.2031C18.2695 14.332 18.1992 14.6133 18.293 14.8066C18.4395 15.1172 18.3985 15.1172 22.0195 15.1172C25.5645 15.1172 25.6465 15.1113 25.7461 14.8535C25.8223 14.6484 25.7813 14.4082 25.6348 14.2676L25.4942 14.1211H22.0195C19.2188 14.127 18.5274 14.1387 18.4395 14.2031Z" fill="#F7B103"/>
<path d="M18.4453 16.0547C18.2871 16.1543 18.1992 16.4883 18.293 16.6816C18.4394 16.9922 18.3984 16.9922 22.0195 16.9922C25.5644 16.9922 25.6465 16.9863 25.7461 16.7285C25.8164 16.541 25.7812 16.3008 25.6582 16.1484L25.541 15.9961H22.043C19.875 15.9961 18.5098 16.0195 18.4453 16.0547Z" fill="#F7B103"/>
<path d="M18.4453 17.9297C18.3926 17.9648 18.3164 18.082 18.2813 18.1934C18.1992 18.4394 18.293 18.6797 18.5156 18.791C18.7031 18.8848 25.2129 18.9023 25.4649 18.8086C25.6817 18.7207 25.7754 18.5859 25.7813 18.334C25.7813 18.1934 25.7402 18.0879 25.6465 18L25.5117 17.8711H22.0254C19.8691 17.8711 18.5098 17.8945 18.4453 17.9297Z" fill="#F7B103"/>
<path d="M13.2773 18.9316L13.125 19.0488V21.9141V24.7793L13.2773 24.8965C13.4766 25.0547 13.7109 25.0547 13.9102 24.8965L14.0625 24.7793V21.9141V19.0488L13.9102 18.9316C13.8223 18.8613 13.6816 18.8086 13.5938 18.8086C13.5059 18.8086 13.3652 18.8613 13.2773 18.9316Z" fill="#F7B103"/>
<path d="M6.24609 19.2832L6.09375 19.4004V21.4512C6.09375 23.4199 6.09961 23.502 6.21094 23.6133C6.28711 23.6895 6.4043 23.7305 6.5625 23.7305C6.7207 23.7305 6.83789 23.6895 6.91406 23.6133C7.02539 23.502 7.03125 23.4199 7.03125 21.4512V19.4004L6.87891 19.2832C6.79102 19.2129 6.65039 19.1602 6.5625 19.1602C6.47461 19.1602 6.33398 19.2129 6.24609 19.2832Z" fill="#F7B103"/>
<path d="M10.9336 20.0449L10.7812 20.1621V21.9141V23.666L10.9395 23.7891C11.127 23.9356 11.4258 23.918 11.6074 23.7539C11.7129 23.6602 11.7188 23.543 11.7188 21.9082V20.1621L11.5664 20.0449C11.4785 19.9746 11.3379 19.9219 11.25 19.9219C11.1621 19.9219 11.0215 19.9746 10.9336 20.0449Z" fill="#F7B103"/>
<path d="M19.1602 20.584C18.7676 20.8418 18.7207 21.0059 18.7207 22.0898C18.7207 23.1738 18.7676 23.3379 19.1602 23.5957L19.3535 23.7305H22.0254H24.6973L24.9082 23.5898C25.2656 23.3438 25.3125 23.168 25.3125 22.084C25.3125 21.1816 25.3066 21.123 25.166 20.8887C24.9082 20.4434 24.9609 20.4492 21.9844 20.4492H19.3535L19.1602 20.584ZM24.3164 22.1191V22.793H22.002H19.6875V22.1191V21.4453H22.002H24.3164V22.1191Z" fill="#F7B103"/>
<path d="M8.69531 21.293C8.5957 21.3399 8.49609 21.416 8.47266 21.4746C8.45508 21.5274 8.4375 22.4063 8.4375 23.4317V25.2949L8.57227 25.418C8.75977 25.5938 9.08203 25.5879 9.24609 25.4121C9.375 25.2774 9.375 25.2481 9.375 23.3906C9.375 21.5801 9.36914 21.4981 9.25781 21.3867C9.19336 21.3223 9.11719 21.2696 9.08789 21.2696C9.05859 21.2696 9 21.2578 8.95312 21.2403C8.91211 21.2285 8.79492 21.252 8.69531 21.293Z" fill="#F7B103"/>
</svg>
