<svg width="64" height="55" viewBox="0 0 64 55" fill="none" xmlns="http://www.w3.org/2000/svg">
<g opacity="0.1">
<path d="M30.3589 0.669922L30.2505 1.00899L24.7198 18.5574H3.39771L5.49154 12.119H19.335L22.8428 1.00899L22.9471 0.669922H30.3589Z" fill="white"/>
<path d="M60.3107 18.5574H38.7676L33.2369 1.00899L33.1284 0.669922H40.5403L40.6445 1.00899L44.1523 12.119H58.2127L60.3107 18.5574Z" fill="white"/>
<path d="M20.1735 31.6605L13.258 49.1297L13.1245 49.465L7.18504 45.3624L7.31434 45.0308L11.6313 34.1205L0.924397 27.3544L0.59906 27.1509L2.58862 21.0478V21.044L2.84305 20.7162L3.04325 20.8406L20.1735 31.6605Z" fill="white"/>
<path d="M62.8344 27.52L52.3819 34.1204L56.6113 44.7934L56.7448 45.1287L50.797 49.2276L50.6677 48.896L43.8439 31.6603L60.7156 21.0024L61.0367 20.799L63.1597 27.3128L62.8344 27.52Z" fill="white"/>
<path d="M48.8116 50.6026L42.9305 54.6601L42.6218 54.4491L32.186 47.3325L21.4666 54.7919L21.158 55.0067L15.2977 50.9605L15.6064 50.7495L32.1443 39.2402L48.5029 50.3916L48.8116 50.6026Z" fill="white"/>
</g>
</svg>
