<svg width="54" height="47" viewBox="0 0 54 47" fill="none" xmlns="http://www.w3.org/2000/svg">
<g opacity="0.1">
<path d="M26.0649 0.110962L25.9727 0.399299L21.2694 15.3224H3.13727L4.91785 9.84715H16.6903L19.6733 0.399299L19.762 0.110962H26.0649Z" fill="white"/>
<path d="M51.5357 15.3224H33.2156L28.5123 0.399299L28.42 0.110962H34.723L34.8117 0.399299L37.7947 9.84715H49.7516L51.5357 15.3224Z" fill="white"/>
<path d="M17.4032 26.4651L11.5223 41.3209L11.4088 41.606L6.35794 38.1171L6.4679 37.8352L10.139 28.5571L1.03393 22.8032L0.757263 22.6302L2.44917 17.4401V17.4369L2.66554 17.1582L2.83579 17.2639L17.4032 26.4651Z" fill="white"/>
<path d="M53.6818 22.9441L44.7931 28.5571L48.3897 37.6333L48.5032 37.9184L43.4452 41.4041L43.3353 41.1222L37.5324 26.465L51.8799 17.4016L52.153 17.2286L53.9585 22.7679L53.6818 22.9441Z" fill="white"/>
<path d="M41.7569 42.5735L36.7557 46.0239L36.4932 45.8445L27.6187 39.7926L18.5029 46.136L18.2405 46.3186L13.257 42.8778L13.5194 42.6984L27.5832 32.9109L41.4944 42.394L41.7569 42.5735Z" fill="white"/>
</g>
</svg>
