<svg width="15" height="15" viewBox="0 0 15 15" fill="none" xmlns="http://www.w3.org/2000/svg">
<path d="M7.95081 8.57336C7.51816 8.57336 7.09523 8.44507 6.7355 8.2047C6.37576 7.96434 6.09539 7.6227 5.92982 7.22298C5.76425 6.82327 5.72093 6.38344 5.80534 5.9591C5.88974 5.53477 6.09808 5.14499 6.40401 4.83907C6.70994 4.53314 7.09971 4.3248 7.52405 4.24039C7.94838 4.15599 8.38821 4.19931 8.78793 4.36487C9.18764 4.53044 9.52928 4.81082 9.76965 5.17055C10.01 5.53028 10.1383 5.95322 10.1383 6.38586C10.1376 6.96581 9.90692 7.52181 9.49684 7.93189C9.08675 8.34198 8.53076 8.57267 7.95081 8.57336ZM7.95081 5.07336C7.69122 5.07336 7.43746 5.15034 7.22162 5.29456C7.00578 5.43878 6.83755 5.64376 6.73821 5.88359C6.63887 6.12342 6.61288 6.38732 6.66353 6.64192C6.71417 6.89652 6.83917 7.13038 7.02273 7.31394C7.20629 7.4975 7.44015 7.6225 7.69475 7.67314C7.94935 7.72379 8.21325 7.69779 8.45308 7.59845C8.69291 7.49911 8.89789 7.33089 9.04211 7.11505C9.18633 6.89921 9.26331 6.64545 9.26331 6.38586C9.26296 6.03787 9.12457 5.70423 8.8785 5.45817C8.63243 5.2121 8.2988 5.07371 7.95081 5.07336Z" fill="#F7B103"/>
<path d="M7.95081 13.8234L4.26006 9.47067C4.20878 9.40532 4.15803 9.33954 4.10781 9.27336C3.47736 8.44289 3.13678 7.42852 3.13831 6.38586C3.13831 5.10951 3.64534 3.88543 4.54786 2.98291C5.45038 2.08039 6.67446 1.57336 7.95081 1.57336C9.22716 1.57336 10.4512 2.08039 11.3538 2.98291C12.2563 3.88543 12.7633 5.10951 12.7633 6.38586C12.7648 7.42805 12.4244 8.44196 11.7942 9.27205L11.7938 9.27336C11.7938 9.27336 11.6626 9.44574 11.6429 9.46892L7.95081 13.8234ZM4.8065 8.74617C4.8065 8.74617 4.90844 8.88092 4.93162 8.9098L7.95081 12.4706L10.9739 8.90499C10.9932 8.88092 11.0956 8.7453 11.096 8.74486C11.611 8.06635 11.8893 7.23769 11.8883 6.38586C11.8883 5.34157 11.4735 4.34005 10.735 3.60163C9.99662 2.8632 8.9951 2.44836 7.95081 2.44836C6.90652 2.44836 5.905 2.8632 5.16658 3.60163C4.42815 4.34005 4.01331 5.34157 4.01331 6.38586C4.01239 7.23822 4.29103 8.06735 4.8065 8.74617Z" fill="#F7B103"/>
</svg>
