<svg width="12" height="20" viewBox="0 0 12 20" fill="none" xmlns="http://www.w3.org/2000/svg">
<path d="M0.704443 19.5608C0.423236 19.2795 0.265263 18.8981 0.265263 18.5003C0.265263 18.1026 0.423236 17.7211 0.704443 17.4398L8.12944 10.0148L0.704442 2.58982C0.431205 2.30692 0.280013 1.92801 0.283431 1.53472C0.286849 1.14142 0.444602 0.765204 0.722714 0.487092C1.00083 0.208979 1.37705 0.0512277 1.77034 0.04781C2.16364 0.0443924 2.54254 0.195584 2.82544 0.468821L11.3109 8.95432C11.5921 9.23561 11.7501 9.61707 11.7501 10.0148C11.7501 10.4126 11.5921 10.794 11.3109 11.0753L2.82544 19.5608C2.54415 19.842 2.16269 20 1.76494 20C1.3672 20 0.985734 19.842 0.704443 19.5608Z" fill="white"/>
</svg>
