<svg width="92" height="81" viewBox="0 0 92 81" fill="none" xmlns="http://www.w3.org/2000/svg">
<g opacity="0.1">
<path d="M43.6113 0.470215L43.4524 0.967092L35.3475 26.6832H4.10126L7.16964 17.2481H27.4564L32.5969 0.967092L32.7497 0.470215H43.6113Z" fill="white"/>
<path d="M87.5038 26.6832H55.9337L47.8287 0.967092L47.6698 0.470215H58.5314L58.6842 0.967092L63.8247 17.2481H84.4293L87.5038 26.6832Z" fill="white"/>
<path d="M28.6851 45.885L18.5509 71.4852L18.3553 71.9766L9.65136 65.9644L9.84084 65.4785L16.1671 49.4901L0.476761 39.5747L0 39.2765L2.91558 30.3328V30.3272L3.28843 29.8469L3.58182 30.0291L28.6851 45.885Z" fill="white"/>
<path d="M91.2021 39.8175L75.8846 49.49L82.0825 65.1306L82.2781 65.6219L73.5619 71.6286L73.3724 71.1428L63.3727 45.8849L88.097 30.2664L88.5677 29.9682L91.6789 39.5138L91.2021 39.8175Z" fill="white"/>
<path d="M70.6525 73.6437L62.0341 79.5896L61.5818 79.2805L46.2888 68.8516L30.5801 79.7829L30.1278 80.0975L21.54 74.1682L21.9923 73.859L46.2277 56.9928L70.2002 73.3345L70.6525 73.6437Z" fill="white"/>
</g>
</svg>
