<svg width="125" height="20" viewBox="0 0 125 20" fill="none" xmlns="http://www.w3.org/2000/svg">
<path d="M10.1249 0L12.3701 6.90983H19.6355L13.7577 11.1803L16.0028 18.0902L10.1249 13.8197L4.24709 18.0902L6.49223 11.1803L0.614374 6.90983H7.8798L10.1249 0Z" fill="#F7B103"/>
<path d="M36.1249 0L38.3701 6.90983H45.6355L39.7577 11.1803L42.0028 18.0902L36.1249 13.8197L30.2471 18.0902L32.4922 11.1803L26.6144 6.90983H33.8798L36.1249 0Z" fill="#F7B103"/>
<path d="M62.1249 0L64.3701 6.90983H71.6355L65.7577 11.1803L68.0028 18.0902L62.1249 13.8197L56.2471 18.0902L58.4922 11.1803L52.6144 6.90983H59.8798L62.1249 0Z" fill="#F7B103"/>
<path d="M88.1249 0L90.3701 6.90983H97.6355L91.7577 11.1803L94.0028 18.0902L88.1249 13.8197L82.2471 18.0902L84.4922 11.1803L78.6144 6.90983H85.8798L88.1249 0Z" fill="#F7B103"/>
<path d="M114.125 0L116.37 6.90983H123.636L117.758 11.1803L120.003 18.0902L114.125 13.8197L108.247 18.0902L110.492 11.1803L104.614 6.90983H111.88L114.125 0Z" fill="#F7B103"/>
</svg>
