<svg width="30" height="30" viewBox="0 0 30 30" fill="none" xmlns="http://www.w3.org/2000/svg">
<path d="M11.8945 1.06055C8.15625 1.49414 4.77539 3.62695 2.80078 6.80859C0.796878 10.0371 0.392581 14.0625 1.71094 17.6367C2.99414 21.1113 5.88281 23.8945 9.4043 25.0488C10.8809 25.5352 12.0234 25.6934 13.6816 25.6465C15.1465 25.6055 16.4414 25.3652 17.6074 24.9082L18.0586 24.7324L18.0352 25.3887C18 26.3262 17.8418 26.6309 16.9395 27.5566C16.3008 28.207 16.2598 28.2656 16.2598 28.4883C16.2598 28.6758 16.2949 28.752 16.4238 28.8633L16.5879 29.0039H22.6641C29.0977 28.998 28.8457 29.0098 28.9922 28.7285C29.1504 28.4355 29.0918 28.3242 28.3828 27.5859C27.668 26.8359 27.4277 26.4609 27.3105 25.9102C27.2695 25.7109 27.2461 24.8379 27.2461 23.5195C27.2461 21.2578 27.2402 21.1875 26.9062 20.8418C26.5781 20.4961 26.4023 20.4492 25.4004 20.4492H24.4922V19.4883C24.4922 18.5977 24.5039 18.5098 24.6387 18.1992C25.043 17.2793 25.3652 16.1367 25.5234 15.0176C25.6289 14.2676 25.6406 12.6211 25.5469 11.8652C25.248 9.45117 24.2754 7.22461 22.6816 5.32617C20.7012 2.95898 17.7305 1.39453 14.5781 1.05469C13.916 0.984375 12.5273 0.990234 11.8945 1.06055ZM14.748 1.78711C17.2969 2.12109 19.5 3.1875 21.3516 4.98047C22.752 6.33398 23.7129 7.8457 24.3164 9.63281C25.0371 11.7598 25.1074 13.875 24.5391 16.3887C24.5332 16.4121 24.5156 16.125 24.498 15.75C24.4688 15.1289 24.4512 15.0527 24.3164 14.9062C24.1465 14.7246 23.8594 14.5898 23.6309 14.5898H23.4668V13.4062C23.4668 12.1348 23.4199 11.7598 23.1445 10.6934C22.2773 7.37109 19.6816 4.64648 16.4063 3.60352C13.8809 2.80664 11.1914 3 8.81836 4.16016C7.57617 4.76367 6.48633 5.58984 5.61914 6.58594C1.52344 11.2734 2.50781 18.498 7.70508 21.8906C10.623 23.7949 14.3965 24.0703 17.5664 22.6113L18.0469 22.3887V23.1738V23.9531L17.625 24.1289C16.998 24.3867 16.3125 24.5918 15.5098 24.7617C14.5137 24.9727 12.8145 25.0195 11.7656 24.873C7.81055 24.3164 4.50586 21.9082 2.77735 18.3105C-0.392575 11.7305 3.34571 3.84961 10.4883 2.03906C11.8242 1.70508 13.3828 1.61133 14.748 1.78711ZM14.1855 3.87305C18.1992 4.27734 21.5098 7.13086 22.5059 11.0273C22.752 11.9941 22.8516 13.2949 22.7578 14.2266L22.7168 14.5781L22.0254 14.6016C21.4395 14.6191 21.3105 14.6367 21.1699 14.7422C20.8477 14.9766 20.8008 15.1699 20.8008 16.1836V17.1035L20.4375 16.8926C20.2383 16.7754 19.998 16.6816 19.9043 16.6816C19.582 16.6816 19.459 17.0508 19.7051 17.2676C19.8516 17.3965 20.666 17.8711 20.748 17.8711C20.7773 17.8711 20.8008 18.1582 20.8008 18.5039V19.1426L20.4258 19.5762C19.752 20.3555 19.6523 20.4316 19.2305 20.4609C18.9434 20.4785 18.8145 20.5254 18.6211 20.6602C18.3574 20.8418 18.1055 21.2168 18.1055 21.4219C18.1055 21.5156 17.9707 21.6094 17.4844 21.8496C14.8594 23.1504 11.8594 23.1738 9.21094 21.9141C5.25 20.0273 3.08789 15.6738 3.98438 11.3848C4.23047 10.1953 4.69336 9.11133 5.39649 8.04492C5.97656 7.17773 7.11914 6.03516 7.98633 5.45508C9.88477 4.20117 12.0293 3.65039 14.1855 3.87305ZM20.8008 20.3613C20.8008 20.4082 20.7598 20.4492 20.707 20.4492C20.625 20.4492 20.625 20.4316 20.6836 20.3613C20.7246 20.3145 20.7656 20.2734 20.7773 20.2734C20.7891 20.2734 20.8008 20.3145 20.8008 20.3613ZM26.543 24.6211C26.543 26.3438 26.7187 26.8711 27.5918 27.7852L28.0781 28.3008H26.666H25.2539V26.4434C25.2539 24.8027 25.2422 24.5742 25.1543 24.4805C25.0371 24.3516 24.7969 24.3457 24.6563 24.4746C24.5566 24.5625 24.5508 24.7031 24.5508 26.4375V28.3008H23.7891H23.0273V27.5508C23.0273 26.9707 23.0098 26.7773 22.9336 26.6719C22.8398 26.5312 22.623 26.502 22.4355 26.6016C22.3359 26.6602 22.3242 26.7363 22.3242 27.4805V28.3008H21.5332H20.7422V27.0879C20.7422 26.0449 20.7305 25.8633 20.6426 25.7695C20.5195 25.6289 20.3027 25.6348 20.1563 25.7812C20.0449 25.8926 20.0391 25.9746 20.0391 27.0996V28.3008H18.627H17.209L17.7129 27.7793C18.5977 26.8594 18.75 26.4141 18.75 24.7148V23.5547H22.6465H26.543V24.6211Z" fill="#F7B103"/>
<path d="M13.043 4.60547C12.9668 4.67578 12.9492 4.83984 12.9492 5.41992C12.9492 6.10547 12.9551 6.15234 13.0781 6.23437C13.2539 6.35742 13.3945 6.35156 13.5352 6.21094C13.6406 6.10547 13.6523 6.01758 13.6523 5.43164C13.6523 4.92773 13.6289 4.74023 13.5586 4.64062C13.4531 4.48828 13.1777 4.46484 13.043 4.60547Z" fill="#F7B103"/>
<path d="M8.8418 5.68357C8.61915 5.81247 8.6543 6.01755 9 6.62693C9.36329 7.2656 9.50391 7.38865 9.75586 7.27732C10.0723 7.13083 9.99024 6.80271 9.4336 5.96482C9.22266 5.64255 9.04102 5.56052 8.8418 5.68357Z" fill="#F7B103"/>
<path d="M17.332 5.6953C17.1621 5.8242 16.6406 6.79686 16.6406 6.9785C16.6406 7.09569 16.6875 7.17772 16.793 7.24803C16.9336 7.33592 16.9629 7.33592 17.1035 7.25975C17.291 7.15428 17.8711 6.18162 17.8711 5.96483C17.8711 5.70115 17.5371 5.53709 17.332 5.6953Z" fill="#F7B103"/>
<path d="M13.125 7.20117C12.9844 7.24219 12.7148 7.54102 12.1523 8.2793C11.9531 8.54297 11.8945 8.67773 11.8945 8.83594C11.8945 8.95898 12.0117 9.73242 12.1465 10.5586L12.4043 12.0645L12.252 12.1758C11.9824 12.375 11.7598 12.8672 11.7539 13.2656C11.748 13.4648 11.7656 13.6875 11.7891 13.7695C11.8242 13.9043 11.7656 13.957 11.0039 14.4727C9.58008 15.4336 9.49219 15.5039 9.49219 15.6973C9.49219 15.9082 9.62695 16.0547 9.82617 16.0547C9.91992 16.0547 10.377 15.7793 11.0859 15.2871L12.1992 14.5195L12.5273 14.6836C12.8086 14.8242 12.9316 14.8535 13.3008 14.8535C13.8047 14.8477 14.0215 14.7598 14.3965 14.4023L14.6367 14.1621L16.084 14.4141C17.2617 14.6133 17.5547 14.6484 17.6836 14.5957C17.9531 14.4785 18.9492 13.6289 19.0078 13.4648C19.043 13.3594 19.043 13.2598 18.9961 13.1602C18.9316 13.0195 17.9883 12.2227 17.707 12.0762C17.5898 12.0176 17.332 12.041 16.1016 12.2461L14.6309 12.4922L14.4023 12.2578L14.168 12.0234L14.4434 10.4297C14.5898 9.54492 14.7012 8.77148 14.6836 8.70117C14.6484 8.56641 13.6934 7.31836 13.5762 7.25977C13.4355 7.18359 13.2656 7.16016 13.125 7.20117ZM13.7461 12.627C14.1035 12.8613 14.2266 13.3887 14.0039 13.752C13.6465 14.3379 12.8379 14.2969 12.5332 13.6699C12.3809 13.3594 12.416 13.0957 12.6387 12.8262C12.9316 12.4805 13.3945 12.3984 13.7461 12.627Z" fill="#F7B103"/>
<path d="M5.7539 8.77147C5.63672 8.81835 5.56054 9.06444 5.61914 9.21678C5.65429 9.31053 5.88281 9.4746 6.26367 9.69139C6.77343 9.9785 6.8789 10.0195 7.01953 9.97264C7.20703 9.91405 7.32422 9.65624 7.23047 9.50389C7.14257 9.36327 6.08789 8.73046 5.94726 8.73632C5.88281 8.73632 5.79492 8.75389 5.7539 8.77147Z" fill="#F7B103"/>
<path d="M19.9512 9.0703C19.3652 9.41014 19.3652 9.41014 19.3652 9.63866C19.3652 9.82616 19.3945 9.88475 19.5176 9.95507C19.6582 10.0312 19.6934 10.0254 19.9863 9.87889C20.1621 9.78514 20.4492 9.61522 20.625 9.49803C20.8887 9.32811 20.9531 9.25194 20.9648 9.0996C20.9766 8.96483 20.9473 8.89452 20.8477 8.82421C20.7773 8.77147 20.6777 8.73046 20.625 8.73046C20.5781 8.73046 20.2734 8.8828 19.9512 9.0703Z" fill="#F7B103"/>
<path d="M4.50001 13.1543C4.45313 13.2598 4.44727 13.3594 4.48829 13.4648L4.54102 13.623H5.36134H6.18165L6.23438 13.4648C6.2754 13.3594 6.26954 13.2598 6.22266 13.1543C6.15235 13.0078 6.15235 13.0078 5.36134 13.0078C4.57032 13.0078 4.57032 13.0078 4.50001 13.1543Z" fill="#F7B103"/>
<path d="M20.4023 13.0782C20.2793 13.2422 20.2734 13.4004 20.3848 13.541C20.4902 13.6699 20.543 13.6817 21.1348 13.6992C21.8848 13.7168 22.0488 13.6582 22.0781 13.3711C22.1133 13.0371 22.043 13.0078 21.2109 13.0078C20.6836 13.0078 20.4492 13.0313 20.4023 13.0782Z" fill="#F7B103"/>
<path d="M6.25196 16.9746C5.63086 17.3262 5.52539 17.4551 5.61914 17.7129C5.74805 18.0469 6.07617 17.9707 6.92578 17.4023C7.25391 17.1855 7.3418 16.9922 7.19531 16.8047C7.03125 16.5937 6.85547 16.6289 6.25196 16.9746Z" fill="#F7B103"/>
<path d="M9.45703 19.3945C9.38672 19.4238 9.1875 19.6992 8.99414 20.0449C8.70703 20.5488 8.66601 20.666 8.70703 20.7949C8.77148 20.9766 9.04101 21.0879 9.1875 21C9.32812 20.918 9.95508 19.8633 9.96093 19.7109C9.96093 19.4648 9.69726 19.2949 9.45703 19.3945Z" fill="#F7B103"/>
<path d="M16.7695 19.4297C16.5645 19.5703 16.6055 19.8047 16.9395 20.3906C17.2383 20.918 17.3555 21.0352 17.5664 21.0352C17.7129 21.0352 17.8711 20.8535 17.8711 20.6953C17.8711 20.5254 17.3027 19.5352 17.1445 19.4238C16.9922 19.3125 16.9336 19.3125 16.7695 19.4297Z" fill="#F7B103"/>
<path d="M13.0781 20.4258C12.9551 20.5078 12.9492 20.5547 12.9492 21.2637C12.9492 22.084 12.9727 22.1484 13.2832 22.1484C13.6055 22.1484 13.6641 21.9844 13.6406 21.1816C13.623 20.584 13.6055 20.4902 13.5117 20.4141C13.3652 20.3086 13.2422 20.3086 13.0781 20.4258Z" fill="#F7B103"/>
</svg>
