<svg width="162" height="169" viewBox="0 0 162 169" fill="none" xmlns="http://www.w3.org/2000/svg">
<g opacity="0.1">
<path d="M52.7092 37.6687L52.8967 38.3806L62.7476 75.1505L24.2665 94.8098L20.769 81.2595L45.753 68.4956L39.5277 45.2106L39.3327 44.5025L52.7092 37.6687Z" fill="white"/>
<path d="M126.98 42.3352L88.1003 62.1983L58.2863 35.6272L57.7074 35.1152L71.0839 28.2814L71.6553 28.7972L90.542 45.6137L115.918 32.6498L126.98 42.3352Z" fill="white"/>
<path d="M69.3511 102.99L76.6134 140.894L76.7514 141.622L61.3955 139.694L61.2542 138.977L56.7149 115.306L29.7447 112.967L28.9276 112.899L25.6208 100.05L25.6165 100.044L25.7053 99.2174L26.2071 99.2572L69.3511 102.99Z" fill="white"/>
<path d="M141.664 56.1837L130.259 77.7332L149.955 93.0957L150.574 93.5777L144.472 106.459L143.864 105.98L112.07 81.1655L130.474 46.3747L130.824 45.7115L142.017 55.5097L141.664 56.1837Z" fill="white"/>
<path d="M142.443 110.771L136.415 123.516L135.62 123.42L108.743 120.199L97.8271 143.544L97.5127 144.217L82.3637 142.318L82.6823 141.652L99.5218 105.632L141.648 110.675L142.443 110.771Z" fill="white"/>
</g>
</svg>
